<?xml version="1.0" encoding="utf-8" standalone="no"?>
<!DOCTYPE svg PUBLIC "-//W3C//DTD SVG 1.1//EN" "http://www.w3.org/Graphics/SVG/1.1/DTD/svg11.dtd">
<svg version="1.1" width="612pt" height="792pt" viewBox="0 0 612 792" overflow="visible" xmlns="http://www.w3.org/2000/svg">
  <path d="M202.9553,414.6354 L159.9517,414.6354 z" stroke="#000000" stroke-width="0.24" fill="none" />
  <path d="M208.802,414.6354 L218.4772,414.6354 L218.4772,360.8968 C218.5889,359.795 217.3398,358.546 216.2381,358.6577 L146.6689,358.6577 C145.5671,358.546 144.3181,359.795 144.4298,360.8968 L144.4298,414.6354 L154.1049,414.6354" stroke="#000000" stroke-width="0.24" fill="none" />
  <path d="M208.802,414.6354 C208.9479,413.1969 207.3172,411.5662 205.8787,411.712 C204.4402,411.5662 202.8095,413.1969 202.9553,414.6354" stroke="#000000" stroke-width="0.24" fill="none" />
  <path d="M384.0681,462.754 L384.0681,455.4227 C384.1203,454.9074 383.5361,454.3232 383.0208,454.3754 L375.6895,454.3754 C375.1741,454.3232 374.5899,454.9074 374.6422,455.4227 L374.6422,462.754 C374.5899,463.2693 375.1741,463.8536 375.6895,463.8013 L383.0208,463.8013 C383.5361,463.8536 384.1203,463.2693 384.0681,462.754 z" stroke="#000000" stroke-width="0.24" fill="none" />
  <path d="M384.0681,451.7579 L384.0681,444.4266 C384.1203,443.9113 383.5361,443.327 383.0208,443.3793 L375.6895,443.3793 C375.1741,443.327 374.5899,443.9113 374.6422,444.4266 L374.6422,451.7579 C374.5899,452.2732 375.1741,452.8575 375.6895,452.8052 L383.0208,452.8052 C383.5361,452.8575 384.1203,452.2732 384.0681,451.7579 z" stroke="#000000" stroke-width="0.24" fill="none" />
  <path d="M384.0681,440.7617 L384.0681,433.4305 C384.1203,432.9151 383.5361,432.3309 383.0208,432.3831 L375.6895,432.3831 C375.1741,432.3309 374.5899,432.9151 374.6422,433.4305 L374.6422,440.7617 C374.5899,441.2771 375.1741,441.8613 375.6895,441.8091 L383.0208,441.8091 C383.5361,441.8613 384.1203,441.2771 384.0681,440.7617 z" stroke="#000000" stroke-width="0.24" fill="none" />
  <path d="M383.9058,429.7115 L383.9058,422.3802 C383.958,421.8648 383.3738,421.2806 382.8584,421.3329 L375.5272,421.3329 C375.0118,421.2806 374.4276,421.8648 374.4798,422.3802 L374.4798,429.7115 C374.4276,430.2268 375.0118,430.811 375.5272,430.7588 L382.8584,430.7588 C383.3738,430.811 383.958,430.2268 383.9058,429.7115 z" stroke="#000000" stroke-width="0.24" fill="none" />
  <path d="M372.9664,462.754 L372.9664,455.4227 C373.0187,454.9074 372.4345,454.3232 371.9191,454.3754 L364.5878,454.3754 C364.0725,454.3232 363.4883,454.9074 363.5405,455.4227 L363.5405,462.754 C363.4883,463.2693 364.0725,463.8536 364.5878,463.8013 L371.9191,463.8013 C372.4345,463.8536 373.0187,463.2693 372.9664,462.754 z" stroke="#000000" stroke-width="0.24" fill="none" />
  <path d="M372.9664,451.7579 L372.9664,444.4266 C373.0187,443.9113 372.4345,443.327 371.9191,443.3793 L364.5878,443.3793 C364.0725,443.327 363.4883,443.9113 363.5405,444.4266 L363.5405,451.7579 C363.4883,452.2732 364.0725,452.8575 364.5878,452.8052 L371.9191,452.8052 C372.4345,452.8575 373.0187,452.2732 372.9664,451.7579 z" stroke="#000000" stroke-width="0.24" fill="none" />
  <path d="M372.9664,440.7617 L372.9664,433.4305 C373.0187,432.9151 372.4345,432.3309 371.9191,432.3831 L364.5878,432.3831 C364.0725,432.3309 363.4883,432.9151 363.5405,433.4305 L363.5405,440.7617 C363.4883,441.2771 364.0725,441.8613 364.5878,441.8091 L371.9191,441.8091 C372.4345,441.8613 373.0187,441.2771 372.9664,440.7617 z" stroke="#000000" stroke-width="0.24" fill="none" />
  <path d="M372.8041,429.7115 L372.8041,422.3802 C372.8564,421.8648 372.2721,421.2806 371.7568,421.3329 L364.4255,421.3329 C363.9102,421.2806 363.3259,421.8648 363.3782,422.3802 L363.3782,429.7115 C363.3259,430.2268 363.9102,430.811 364.4255,430.7588 L371.7568,430.7588 C372.2721,430.811 372.8564,430.2268 372.8041,429.7115 z" stroke="#000000" stroke-width="0.24" fill="none" />
  <path d="M361.8648,462.754 L361.8648,455.4227 C361.9171,454.9074 361.3328,454.3232 360.8175,454.3754 L353.4862,454.3754 C352.9708,454.3232 352.3866,454.9074 352.4389,455.4227 L352.4389,462.754 C352.3866,463.2693 352.9708,463.8536 353.4862,463.8013 L360.8175,463.8013 C361.3328,463.8536 361.9171,463.2693 361.8648,462.754 z" stroke="#000000" stroke-width="0.24" fill="none" />
  <path d="M361.8648,451.7579 L361.8648,444.4266 C361.9171,443.9113 361.3328,443.327 360.8175,443.3793 L353.4862,443.3793 C352.9708,443.327 352.3866,443.9113 352.4389,444.4266 L352.4389,451.7579 C352.3866,452.2732 352.9708,452.8575 353.4862,452.8052 L360.8175,452.8052 C361.3328,452.8575 361.9171,452.2732 361.8648,451.7579 z" stroke="#000000" stroke-width="0.24" fill="none" />
  <path d="M361.8648,440.7617 L361.8648,433.4305 C361.9171,432.9151 361.3328,432.3309 360.8175,432.3831 L353.4862,432.3831 C352.9708,432.3309 352.3866,432.9151 352.4389,433.4305 L352.4389,440.7617 C352.3866,441.2771 352.9708,441.8613 353.4862,441.8091 L360.8175,441.8091 C361.3328,441.8613 361.9171,441.2771 361.8648,440.7617 z" stroke="#000000" stroke-width="0.24" fill="none" />
  <path d="M361.7025,429.7115 L361.7025,422.3802 C361.7547,421.8648 361.1705,421.2806 360.6551,421.3329 L353.3239,421.3329 C352.8085,421.2806 352.2243,421.8648 352.2765,422.3802 L352.2765,429.7115 C352.2243,430.2268 352.8085,430.811 353.3239,430.7588 L360.6551,430.7588 C361.1705,430.811 361.7547,430.2268 361.7025,429.7115 z" stroke="#000000" stroke-width="0.24" fill="none" />
  <path d="M350.7632,462.754 L350.7632,455.4227 C350.8154,454.9074 350.2312,454.3232 349.7158,454.3754 L342.3846,454.3754 C341.8692,454.3232 341.285,454.9074 341.3372,455.4227 L341.3372,462.754 C341.285,463.2693 341.8692,463.8536 342.3846,463.8013 L349.7158,463.8013 C350.2312,463.8536 350.8154,463.2693 350.7632,462.754 z" stroke="#000000" stroke-width="0.24" fill="none" />
  <path d="M350.7632,451.7579 L350.7632,444.4266 C350.8154,443.9113 350.2312,443.327 349.7158,443.3793 L342.3846,443.3793 C341.8692,443.327 341.285,443.9113 341.3372,444.4266 L341.3372,451.7579 C341.285,452.2732 341.8692,452.8575 342.3846,452.8052 L349.7158,452.8052 C350.2312,452.8575 350.8154,452.2732 350.7632,451.7579 z" stroke="#000000" stroke-width="0.24" fill="none" />
  <path d="M350.7632,440.7617 L350.7632,433.4305 C350.8154,432.9151 350.2312,432.3309 349.7158,432.3831 L342.3846,432.3831 C341.8692,432.3309 341.285,432.9151 341.3372,433.4305 L341.3372,440.7617 C341.285,441.2771 341.8692,441.8613 342.3846,441.8091 L349.7158,441.8091 C350.2312,441.8613 350.8154,441.2771 350.7632,440.7617 z" stroke="#000000" stroke-width="0.24" fill="none" />
  <path d="M350.6008,429.7115 L350.6008,422.3802 C350.653,421.8648 350.0688,421.2806 349.5535,421.3329 L342.2222,421.3329 C341.7068,421.2806 341.1226,421.8648 341.1749,422.3802 L341.1749,429.7115 C341.1226,430.2268 341.7068,430.811 342.2222,430.7588 L349.5535,430.7588 C350.0688,430.811 350.653,430.2268 350.6008,429.7115 z" stroke="#000000" stroke-width="0.24" fill="none" />
  <path d="M339.6615,462.754 L339.6615,455.4227 C339.7137,454.9074 339.1295,454.3232 338.6142,454.3754 L331.2829,454.3754 C330.7675,454.3232 330.1833,454.9074 330.2356,455.4227 L330.2356,462.754 C330.1833,463.2693 330.7675,463.8536 331.2829,463.8013 L338.6142,463.8013 C339.1295,463.8536 339.7137,463.2693 339.6615,462.754 z" stroke="#000000" stroke-width="0.24" fill="none" />
  <path d="M339.6615,451.7579 L339.6615,444.4266 C339.7137,443.9113 339.1295,443.327 338.6142,443.3793 L331.2829,443.3793 C330.7675,443.327 330.1833,443.9113 330.2356,444.4266 L330.2356,451.7579 C330.1833,452.2732 330.7675,452.8575 331.2829,452.8052 L338.6142,452.8052 C339.1295,452.8575 339.7137,452.2732 339.6615,451.7579 z" stroke="#000000" stroke-width="0.24" fill="none" />
  <path d="M339.6615,440.7617 L339.6615,433.4305 C339.7137,432.9151 339.1295,432.3309 338.6142,432.3831 L331.2829,432.3831 C330.7675,432.3309 330.1833,432.9151 330.2356,433.4305 L330.2356,440.7617 C330.1833,441.2771 330.7675,441.8613 331.2829,441.8091 L338.6142,441.8091 C339.1295,441.8613 339.7137,441.2771 339.6615,440.7617 z" stroke="#000000" stroke-width="0.24" fill="none" />
  <path d="M339.4991,429.7115 L339.4991,422.3802 C339.5514,421.8648 338.9672,421.2806 338.4518,421.3329 L331.1205,421.3329 C330.6052,421.2806 330.021,421.8648 330.0732,422.3802 L330.0732,429.7115 C330.021,430.2268 330.6052,430.811 331.1205,430.7588 L338.4518,430.7588 C338.9672,430.811 339.5514,430.2268 339.4991,429.7115 z" stroke="#000000" stroke-width="0.24" fill="none" />
  <path d="M328.5598,462.754 L328.5598,455.4227 C328.6121,454.9074 328.0279,454.3232 327.5125,454.3754 L320.1812,454.3754 C319.6659,454.3232 319.0817,454.9074 319.1339,455.4227 L319.1339,462.754 C319.0817,463.2693 319.6659,463.8536 320.1812,463.8013 L327.5125,463.8013 C328.0279,463.8536 328.6121,463.2693 328.5598,462.754 z" stroke="#000000" stroke-width="0.24" fill="none" />
  <path d="M328.5598,451.7579 L328.5598,444.4266 C328.6121,443.9113 328.0279,443.327 327.5125,443.3793 L320.1812,443.3793 C319.6659,443.327 319.0817,443.9113 319.1339,444.4266 L319.1339,451.7579 C319.0817,452.2732 319.6659,452.8575 320.1812,452.8052 L327.5125,452.8052 C328.0279,452.8575 328.6121,452.2732 328.5598,451.7579 z" stroke="#000000" stroke-width="0.24" fill="none" />
  <path d="M328.5598,440.7617 L328.5598,433.4305 C328.6121,432.9151 328.0279,432.3309 327.5125,432.3831 L320.1812,432.3831 C319.6659,432.3309 319.0817,432.9151 319.1339,433.4305 L319.1339,440.7617 C319.0817,441.2771 319.6659,441.8613 320.1812,441.8091 L327.5125,441.8091 C328.0279,441.8613 328.6121,441.2771 328.5598,440.7617 z" stroke="#000000" stroke-width="0.24" fill="none" />
  <path d="M328.3975,429.7115 L328.3975,422.3802 C328.4498,421.8648 327.8655,421.2806 327.3502,421.3329 L320.0189,421.3329 C319.5035,421.2806 318.9193,421.8648 318.9716,422.3802 L318.9716,429.7115 C318.9193,430.2268 319.5035,430.811 320.0189,430.7588 L327.3502,430.7588 C327.8655,430.811 328.4498,430.2268 328.3975,429.7115 z" stroke="#000000" stroke-width="0.24" fill="none" />
  <path d="M384.0681,406.7763 L384.0681,399.445 C384.1203,398.9296 383.5361,398.3454 383.0208,398.3977 L375.6895,398.3977 C375.1741,398.3454 374.5899,398.9296 374.6422,399.445 L374.6422,406.7763 C374.5899,407.2916 375.1741,407.8758 375.6895,407.8236 L383.0208,407.8236 C383.5361,407.8758 384.1203,407.2916 384.0681,406.7763 z" stroke="#000000" stroke-width="0.24" fill="none" />
  <path d="M384.0681,395.7802 L384.0681,388.4489 C384.1203,387.9335 383.5361,387.3493 383.0208,387.4016 L375.6895,387.4016 C375.1741,387.3493 374.5899,387.9335 374.6422,388.4489 L374.6422,395.7802 C374.5899,396.2955 375.1741,396.8797 375.6895,396.8275 L383.0208,396.8275 C383.5361,396.8797 384.1203,396.2955 384.0681,395.7802 z" stroke="#000000" stroke-width="0.24" fill="none" />
  <path d="M384.0681,384.784 L384.0681,377.4528 C384.1203,376.9374 383.5361,376.3532 383.0208,376.4054 L375.6895,376.4054 C375.1741,376.3532 374.5899,376.9374 374.6422,377.4528 L374.6422,384.784 C374.5899,385.2994 375.1741,385.8836 375.6895,385.8314 L383.0208,385.8314 C383.5361,385.8836 384.1203,385.2994 384.0681,384.784 z" stroke="#000000" stroke-width="0.24" fill="none" />
  <path d="M383.9058,373.7337 L383.9058,366.4024 C383.958,365.8871 383.3738,365.3029 382.8584,365.3551 L375.5272,365.3551 C375.0118,365.3029 374.4276,365.8871 374.4798,366.4024 L374.4798,373.7337 C374.4276,374.2491 375.0118,374.8333 375.5272,374.781 L382.8584,374.781 C383.3738,374.8333 383.958,374.2491 383.9058,373.7337 z" stroke="#000000" stroke-width="0.24" fill="none" />
  <path d="M372.9664,406.7763 L372.9664,399.445 C373.0187,398.9296 372.4345,398.3454 371.9191,398.3977 L364.5878,398.3977 C364.0725,398.3454 363.4883,398.9296 363.5405,399.445 L363.5405,406.7763 C363.4883,407.2916 364.0725,407.8758 364.5878,407.8236 L371.9191,407.8236 C372.4345,407.8758 373.0187,407.2916 372.9664,406.7763 z" stroke="#000000" stroke-width="0.24" fill="none" />
  <path d="M372.9664,395.7802 L372.9664,388.4489 C373.0187,387.9335 372.4345,387.3493 371.9191,387.4016 L364.5878,387.4016 C364.0725,387.3493 363.4883,387.9335 363.5405,388.4489 L363.5405,395.7802 C363.4883,396.2955 364.0725,396.8797 364.5878,396.8275 L371.9191,396.8275 C372.4345,396.8797 373.0187,396.2955 372.9664,395.7802 z" stroke="#000000" stroke-width="0.24" fill="none" />
  <path d="M372.9664,384.784 L372.9664,377.4528 C373.0187,376.9374 372.4345,376.3532 371.9191,376.4054 L364.5878,376.4054 C364.0725,376.3532 363.4883,376.9374 363.5405,377.4528 L363.5405,384.784 C363.4883,385.2994 364.0725,385.8836 364.5878,385.8314 L371.9191,385.8314 C372.4345,385.8836 373.0187,385.2994 372.9664,384.784 z" stroke="#000000" stroke-width="0.24" fill="none" />
  <path d="M372.8041,373.7337 L372.8041,366.4024 C372.8564,365.8871 372.2721,365.3029 371.7568,365.3551 L364.4255,365.3551 C363.9102,365.3029 363.3259,365.8871 363.3782,366.4024 L363.3782,373.7337 C363.3259,374.2491 363.9102,374.8333 364.4255,374.781 L371.7568,374.781 C372.2721,374.8333 372.8564,374.2491 372.8041,373.7337 z" stroke="#000000" stroke-width="0.24" fill="none" />
  <path d="M361.8648,406.7763 L361.8648,399.445 C361.9171,398.9296 361.3328,398.3454 360.8175,398.3977 L353.4862,398.3977 C352.9708,398.3454 352.3866,398.9296 352.4389,399.445 L352.4389,406.7763 C352.3866,407.2916 352.9708,407.8758 353.4862,407.8236 L360.8175,407.8236 C361.3328,407.8758 361.9171,407.2916 361.8648,406.7763 z" stroke="#000000" stroke-width="0.24" fill="none" />
  <path d="M361.8648,395.7802 L361.8648,388.4489 C361.9171,387.9335 361.3328,387.3493 360.8175,387.4016 L353.4862,387.4016 C352.9708,387.3493 352.3866,387.9335 352.4389,388.4489 L352.4389,395.7802 C352.3866,396.2955 352.9708,396.8797 353.4862,396.8275 L360.8175,396.8275 C361.3328,396.8797 361.9171,396.2955 361.8648,395.7802 z" stroke="#000000" stroke-width="0.24" fill="none" />
  <path d="M361.8648,384.784 L361.8648,377.4528 C361.9171,376.9374 361.3328,376.3532 360.8175,376.4054 L353.4862,376.4054 C352.9708,376.3532 352.3866,376.9374 352.4389,377.4528 L352.4389,384.784 C352.3866,385.2994 352.9708,385.8836 353.4862,385.8314 L360.8175,385.8314 C361.3328,385.8836 361.9171,385.2994 361.8648,384.784 z" stroke="#000000" stroke-width="0.24" fill="none" />
  <path d="M361.7025,373.7337 L361.7025,366.4024 C361.7547,365.8871 361.1705,365.3029 360.6551,365.3551 L353.3239,365.3551 C352.8085,365.3029 352.2243,365.8871 352.2765,366.4024 L352.2765,373.7337 C352.2243,374.2491 352.8085,374.8333 353.3239,374.781 L360.6551,374.781 C361.1705,374.8333 361.7547,374.2491 361.7025,373.7337 z" stroke="#000000" stroke-width="0.24" fill="none" />
  <path d="M350.7632,406.7763 L350.7632,399.445 C350.8154,398.9296 350.2312,398.3454 349.7158,398.3977 L342.3846,398.3977 C341.8692,398.3454 341.285,398.9296 341.3372,399.445 L341.3372,406.7763 C341.285,407.2916 341.8692,407.8758 342.3846,407.8236 L349.7158,407.8236 C350.2312,407.8758 350.8154,407.2916 350.7632,406.7763 z" stroke="#000000" stroke-width="0.24" fill="none" />
  <path d="M350.7632,395.7802 L350.7632,388.4489 C350.8154,387.9335 350.2312,387.3493 349.7158,387.4016 L342.3846,387.4016 C341.8692,387.3493 341.285,387.9335 341.3372,388.4489 L341.3372,395.7802 C341.285,396.2955 341.8692,396.8797 342.3846,396.8275 L349.7158,396.8275 C350.2312,396.8797 350.8154,396.2955 350.7632,395.7802 z" stroke="#000000" stroke-width="0.24" fill="none" />
  <path d="M350.7632,384.784 L350.7632,377.4528 C350.8154,376.9374 350.2312,376.3532 349.7158,376.4054 L342.3846,376.4054 C341.8692,376.3532 341.285,376.9374 341.3372,377.4528 L341.3372,384.784 C341.285,385.2994 341.8692,385.8836 342.3846,385.8314 L349.7158,385.8314 C350.2312,385.8836 350.8154,385.2994 350.7632,384.784 z" stroke="#000000" stroke-width="0.24" fill="none" />
  <path d="M350.6008,373.7337 L350.6008,366.4024 C350.653,365.8871 350.0688,365.3029 349.5535,365.3551 L342.2222,365.3551 C341.7068,365.3029 341.1226,365.8871 341.1749,366.4024 L341.1749,373.7337 C341.1226,374.2491 341.7068,374.8333 342.2222,374.781 L349.5535,374.781 C350.0688,374.8333 350.653,374.2491 350.6008,373.7337 z" stroke="#000000" stroke-width="0.24" fill="none" />
  <path d="M339.6615,406.7763 L339.6615,399.445 C339.7137,398.9296 339.1295,398.3454 338.6142,398.3977 L331.2829,398.3977 C330.7675,398.3454 330.1833,398.9296 330.2356,399.445 L330.2356,406.7763 C330.1833,407.2916 330.7675,407.8758 331.2829,407.8236 L338.6142,407.8236 C339.1295,407.8758 339.7137,407.2916 339.6615,406.7763 z" stroke="#000000" stroke-width="0.24" fill="none" />
  <path d="M339.6615,395.7802 L339.6615,388.4489 C339.7137,387.9335 339.1295,387.3493 338.6142,387.4016 L331.2829,387.4016 C330.7675,387.3493 330.1833,387.9335 330.2356,388.4489 L330.2356,395.7802 C330.1833,396.2955 330.7675,396.8797 331.2829,396.8275 L338.6142,396.8275 C339.1295,396.8797 339.7137,396.2955 339.6615,395.7802 z" stroke="#000000" stroke-width="0.24" fill="none" />
  <path d="M339.6615,384.784 L339.6615,377.4528 C339.7137,376.9374 339.1295,376.3532 338.6142,376.4054 L331.2829,376.4054 C330.7675,376.3532 330.1833,376.9374 330.2356,377.4528 L330.2356,384.784 C330.1833,385.2994 330.7675,385.8836 331.2829,385.8314 L338.6142,385.8314 C339.1295,385.8836 339.7137,385.2994 339.6615,384.784 z" stroke="#000000" stroke-width="0.24" fill="none" />
  <path d="M339.4991,373.7337 L339.4991,366.4024 C339.5514,365.8871 338.9672,365.3029 338.4518,365.3551 L331.1205,365.3551 C330.6052,365.3029 330.021,365.8871 330.0732,366.4024 L330.0732,373.7337 C330.021,374.2491 330.6052,374.8333 331.1205,374.781 L338.4518,374.781 C338.9672,374.8333 339.5514,374.2491 339.4991,373.7337 z" stroke="#000000" stroke-width="0.24" fill="none" />
  <path d="M328.5598,406.7763 L328.5598,399.445 C328.6121,398.9296 328.0279,398.3454 327.5125,398.3977 L320.1812,398.3977 C319.6659,398.3454 319.0817,398.9296 319.1339,399.445 L319.1339,406.7763 C319.0817,407.2916 319.6659,407.8758 320.1812,407.8236 L327.5125,407.8236 C328.0279,407.8758 328.6121,407.2916 328.5598,406.7763 z" stroke="#000000" stroke-width="0.24" fill="none" />
  <path d="M328.5598,395.7802 L328.5598,388.4489 C328.6121,387.9335 328.0279,387.3493 327.5125,387.4016 L320.1812,387.4016 C319.6659,387.3493 319.0817,387.9335 319.1339,388.4489 L319.1339,395.7802 C319.0817,396.2955 319.6659,396.8797 320.1812,396.8275 L327.5125,396.8275 C328.0279,396.8797 328.6121,396.2955 328.5598,395.7802 z" stroke="#000000" stroke-width="0.24" fill="none" />
  <path d="M328.5598,384.784 L328.5598,377.4528 C328.6121,376.9374 328.0279,376.3532 327.5125,376.4054 L320.1812,376.4054 C319.6659,376.3532 319.0817,376.9374 319.1339,377.4528 L319.1339,384.784 C319.0817,385.2994 319.6659,385.8836 320.1812,385.8314 L327.5125,385.8314 C328.0279,385.8836 328.6121,385.2994 328.5598,384.784 z" stroke="#000000" stroke-width="0.24" fill="none" />
  <path d="M328.3975,373.7337 L328.3975,366.4024 C328.4498,365.8871 327.8655,365.3029 327.3502,365.3551 L320.0189,365.3551 C319.5035,365.3029 318.9193,365.8871 318.9716,366.4024 L318.9716,373.7337 C318.9193,374.2491 319.5035,374.8333 320.0189,374.781 L327.3502,374.781 C327.8655,374.8333 328.4498,374.2491 328.3975,373.7337 z" stroke="#000000" stroke-width="0.24" fill="none" />
  <path d="M378.7358,414.6354 C378.8816,413.1969 377.2509,411.5662 375.8124,411.712 C374.3739,411.5662 372.7432,413.1969 372.889,414.6354" stroke="#000000" stroke-width="0.24" fill="none" />
  <path d="M329.8854,414.6354 L372.8891,414.6354 z" stroke="#000000" stroke-width="0.24" fill="none" />
  <path d="M324.0387,414.6354 C323.8929,416.0739 325.5236,417.7046 326.962,417.5587 C328.4005,417.7046 330.0312,416.0739 329.8854,414.6354" stroke="#000000" stroke-width="0.24" fill="none" />
  <path d="M324.0387,414.6354 L314.3636,414.6354 L314.3636,468.374 C314.2519,469.4758 315.5009,470.7248 316.6027,470.6131 L386.1718,470.6131 C387.2736,470.7248 388.5226,469.4758 388.4109,468.374 L388.4109,414.6354 L378.7358,414.6354 L388.4109,414.6354 L388.4109,360.8968 C388.5226,359.795 387.2736,358.546 386.1718,358.6577 L316.6027,358.6577 C315.5009,358.546 314.2519,359.795 314.3636,360.8968 L314.3636,414.6354 z" stroke="#000000" stroke-width="0.24" fill="none" />
  <path d="M154.1049,414.6354 C153.9591,416.0739 155.5898,417.7046 157.0283,417.5587 C158.4668,417.7046 160.0975,416.0739 159.9517,414.6354" stroke="#000000" stroke-width="0.24" fill="none" />
  <path d="M154.1049,414.6354 L144.4298,414.6354 L144.4298,468.374 C144.3181,469.4758 145.5671,470.7248 146.6689,470.6131 L216.2381,470.6131 C217.3398,470.7248 218.5889,469.4758 218.4772,468.374 L218.4772,414.6354 L208.802,414.6354" stroke="#000000" stroke-width="0.24" fill="none" />
</svg>